<svg width="21" height="20" viewBox="0 0 21 20" fill="none" xmlns="http://www.w3.org/2000/svg">
<path d="M14.4166 15.8168H6.58325C6.23325 15.8168 5.84159 15.5418 5.72492 15.2085L2.27492 5.55846C1.78326 4.17513 2.35826 3.75013 3.54159 4.60013L6.79159 6.92513C7.33325 7.30013 7.94992 7.10846 8.18325 6.50013L9.64992 2.5918C10.1166 1.3418 10.8916 1.3418 11.3583 2.5918L12.8249 6.50013C13.0583 7.10846 13.6749 7.30013 14.2083 6.92513L17.2583 4.75013C18.5583 3.8168 19.1833 4.2918 18.6499 5.80013L15.2833 15.2251C15.1583 15.5418 14.7666 15.8168 14.4166 15.8168Z" stroke="black" stroke-width="1.2" stroke-linecap="round" stroke-linejoin="round"/>
<path d="M5.91675 18.333H15.0834" stroke="black" stroke-width="1.2" stroke-linecap="round" stroke-linejoin="round"/>
<path d="M8.41675 11.667H12.5834" stroke="black" stroke-width="1.2" stroke-linecap="round" stroke-linejoin="round"/>
</svg>
