<svg width="25" height="25" viewBox="0 0 25 25" fill="none" xmlns="http://www.w3.org/2000/svg">
<path d="M23.251 12.7336C23.251 11.8702 23.1796 11.2402 23.0248 10.5869H12.9653V14.4835H18.87C18.751 15.4519 18.1082 16.9102 16.6796 17.8902L16.6596 18.0206L19.8402 20.4354L20.0606 20.4569C22.0843 18.6252 23.251 15.9302 23.251 12.7336Z" fill="#4285F4"/>
<path d="M12.964 22.9996C15.8568 22.9996 18.2853 22.0662 20.0592 20.4562L16.6782 17.8895C15.7735 18.5078 14.5592 18.9395 12.964 18.9395C10.1307 18.9395 7.72596 17.1079 6.86874 14.5762L6.74309 14.5866L3.43583 17.095L3.39258 17.2128C5.15446 20.6428 8.7735 22.9996 12.964 22.9996Z" fill="#34A853"/>
<path d="M6.87046 14.5765C6.64428 13.9232 6.51337 13.2231 6.51337 12.4998C6.51337 11.7764 6.64428 11.0765 6.85856 10.4231L6.85257 10.284L3.50386 7.73535L3.39429 7.78642C2.66814 9.20977 2.25146 10.8081 2.25146 12.4998C2.25146 14.1915 2.66814 15.7897 3.39429 17.2131L6.87046 14.5765Z" fill="#FBBC05"/>
<path d="M12.9641 6.05997C14.9759 6.05997 16.333 6.91163 17.1069 7.62335L20.1307 4.73C18.2736 3.03834 15.8569 2 12.9641 2C8.77353 2 5.15447 4.35665 3.39258 7.78662L6.85686 10.4233C7.72598 7.89166 10.1307 6.05997 12.9641 6.05997Z" fill="#EB4335"/>
</svg>
