<svg width="25" height="24" viewBox="0 0 25 24" fill="none" xmlns="http://www.w3.org/2000/svg">
<path d="M6.75 10V8C6.75 4.69 7.75 2 12.75 2C17.75 2 18.75 4.69 18.75 8V10" stroke="#626262" stroke-width="1.2" stroke-linecap="round" stroke-linejoin="round"/>
<path d="M12.75 18.5C14.1307 18.5 15.25 17.3807 15.25 16C15.25 14.6193 14.1307 13.5 12.75 13.5C11.3693 13.5 10.25 14.6193 10.25 16C10.25 17.3807 11.3693 18.5 12.75 18.5Z" stroke="#626262" stroke-width="1.2" stroke-linecap="round" stroke-linejoin="round"/>
<path d="M17.75 22H7.75C3.75 22 2.75 21 2.75 17V15C2.75 11 3.75 10 7.75 10H17.75C21.75 10 22.75 11 22.75 15V17C22.75 21 21.75 22 17.75 22Z" stroke="#626262" stroke-width="1.2" stroke-linecap="round" stroke-linejoin="round"/>
</svg>
