<svg width="21" height="20" viewBox="0 0 21 20" fill="none" xmlns="http://www.w3.org/2000/svg">
<path d="M10.5 12.9165C12.3416 12.9165 13.8333 11.4248 13.8333 9.58317V4.99984C13.8333 3.15817 12.3416 1.6665 10.5 1.6665C8.65829 1.6665 7.16663 3.15817 7.16663 4.99984V9.58317C7.16663 11.4248 8.65829 12.9165 10.5 12.9165Z" stroke="#A5A5A5" stroke-width="1.1" stroke-linecap="round" stroke-linejoin="round"/>
<path d="M4.125 8.0415V9.45817C4.125 12.9748 6.98333 15.8332 10.5 15.8332C14.0167 15.8332 16.875 12.9748 16.875 9.45817V8.0415" stroke="#A5A5A5" stroke-width="1.1" stroke-linecap="round" stroke-linejoin="round"/>
<path d="M9.34167 5.35811C10.0917 5.08311 10.9083 5.08311 11.6583 5.35811" stroke="#A5A5A5" stroke-width="1.1" stroke-linecap="round" stroke-linejoin="round"/>
<path d="M9.83337 7.1251C10.275 7.00843 10.7334 7.00843 11.175 7.1251" stroke="#A5A5A5" stroke-width="1.1" stroke-linecap="round" stroke-linejoin="round"/>
<path d="M10.5 15.8335V18.3335" stroke="#A5A5A5" stroke-width="1.1" stroke-linecap="round" stroke-linejoin="round"/>
</svg>
